<svg width="94" height="94" viewBox="0 0 94 94" fill="none" xmlns="http://www.w3.org/2000/svg">
<path d="M1.39381e-05 58.626L1.13754e-05 7.62939e-06L58.6631 5.06515e-06C68.0351 4.65549e-06 77.0231 3.72167 83.6501 10.3463C90.277 16.9709 94 25.9558 94 35.3244L94 94L35.3534 94C30.7079 94 26.108 93.0848 21.8166 91.3067C17.5252 89.5286 13.6264 86.9224 10.3431 83.6372C7.05978 80.352 4.45636 76.4521 2.68163 72.1605C0.906901 67.8689 -0.0043335 63.2698 1.39381e-05 58.626Z" fill="#DA972E"/>
<path d="M65.2244 21.1035H28.7754V53.3552C28.7754 53.9075 29.2231 54.3552 29.7754 54.3552H37.1894C38.294 54.3552 39.1894 55.2506 39.1894 56.3552V60.0287C39.1894 61.1332 38.294 62.0287 37.1894 62.0287H30.7754C29.6708 62.0287 28.7754 62.9241 28.7754 64.0287V68.9811C28.7754 70.0856 29.6708 70.9811 30.7754 70.9811H63.2244C64.3289 70.9811 65.2244 70.0856 65.2244 68.9811V64.0287C65.2244 62.9241 64.3289 62.0287 63.2244 62.0287H56.8104C55.7058 62.0287 54.8104 61.1332 54.8104 60.0287V56.3552C54.8104 55.2506 55.7058 54.3552 56.8104 54.3552H64.2244C64.7766 54.3552 65.2244 53.9075 65.2244 53.3552V21.1035Z" fill="#DA972E" stroke="white" stroke-width="4" stroke-linejoin="round"/>
</svg>
