<svg width="52" height="52" viewBox="0 0 52 52" fill="none" xmlns="http://www.w3.org/2000/svg">
<path d="M7.71042e-06 32.4314L6.29279e-06 0L32.452 -1.41852e-06C37.6364 -1.64514e-06 42.6085 2.05879 46.2745 5.72347C49.9405 9.38815 52 14.3585 52 19.5412L52 52L19.5572 52C16.9874 52 14.4427 51.4937 12.0688 50.5101C9.69478 49.5264 7.538 48.0847 5.7217 46.2674C3.90541 44.45 2.46522 42.2927 1.48345 39.9186C0.50169 37.5445 -0.00239726 35.0003 7.71042e-06 32.4314Z" fill="#DA972E"/>
<path d="M36.0817 11.6736H15.9185V29.0681C15.9185 29.6204 16.3662 30.0681 16.9185 30.0681H19.6794C20.784 30.0681 21.6794 30.9636 21.6794 32.0681V32.313C21.6794 33.4176 20.784 34.313 19.6794 34.313H17.9185C16.8139 34.313 15.9185 35.2085 15.9185 36.313V37.2654C15.9185 38.37 16.8139 39.2654 17.9185 39.2654H34.0817C35.1863 39.2654 36.0817 38.37 36.0817 37.2654V36.313C36.0817 35.2085 35.1863 34.313 34.0817 34.313H32.3208C31.2162 34.313 30.3208 33.4176 30.3208 32.313V32.0681C30.3208 30.9636 31.2162 30.0681 32.3208 30.0681H35.0817C35.634 30.0681 36.0817 29.6204 36.0817 29.0681V11.6736Z" fill="#DA972E" stroke="white" stroke-width="2" stroke-linejoin="round"/>
<path d="M19.1021 29.7144H33.9592" stroke="white" stroke-width="1.3"/>
</svg>
